G04 #@! TF.FileFunction,Copper,L1,Top,Signal*
%FSLAX46Y46*%
G04 Gerber Fmt 4.6, Leading zero omitted, Abs format (unit mm)*
G04 Created by KiCad (PCBNEW 4.0.7) date 11/18/18 14:35:23*
%MOMM*%
%LPD*%
G01*
G04 APERTURE LIST*
%ADD10C,0.100000*%
%ADD11R,1.700000X1.700000*%
%ADD12O,1.700000X1.700000*%
%ADD13R,2.500000X1.100000*%
%ADD14O,2.500000X1.100000*%
%ADD15O,1.100000X2.500000*%
%ADD16C,0.250000*%
G04 APERTURE END LIST*
D10*
D11*
X133985000Y-109855000D03*
D12*
X133985000Y-107315000D03*
X133985000Y-104775000D03*
X133985000Y-102235000D03*
X133985000Y-99695000D03*
X133985000Y-97155000D03*
X133985000Y-94615000D03*
X133985000Y-92075000D03*
X133985000Y-89535000D03*
X133985000Y-86995000D03*
X133985000Y-84455000D03*
D11*
X159385000Y-84455000D03*
D12*
X159385000Y-86995000D03*
X159385000Y-89535000D03*
X159385000Y-92075000D03*
X159385000Y-94615000D03*
X159385000Y-97155000D03*
X159385000Y-99695000D03*
X159385000Y-102235000D03*
X159385000Y-104775000D03*
X159385000Y-107315000D03*
X159385000Y-109855000D03*
D13*
X139000000Y-89535000D03*
D14*
X139000000Y-91535000D03*
X139000000Y-93535000D03*
X139000000Y-95535000D03*
X139000000Y-97535000D03*
X139000000Y-99535000D03*
X139000000Y-101535000D03*
X139000000Y-103535000D03*
X154400000Y-103535000D03*
X154300000Y-101535000D03*
X154400000Y-99535000D03*
X154400000Y-97535000D03*
X154400000Y-95535000D03*
X154400000Y-93535000D03*
X154400000Y-91535000D03*
X154400000Y-89535000D03*
D15*
X141690000Y-105235000D03*
X143690000Y-105235000D03*
X145690000Y-105235000D03*
X147690000Y-105235000D03*
X149690000Y-105235000D03*
X151690000Y-105235000D03*
D16*
X159385000Y-84455000D02*
X158780000Y-84455000D01*
M02*
