G04 #@! TF.FileFunction,Legend,Bot*
%FSLAX46Y46*%
G04 Gerber Fmt 4.6, Leading zero omitted, Abs format (unit mm)*
G04 Created by KiCad (PCBNEW 4.0.7) date 11/18/18 14:35:23*
%MOMM*%
%LPD*%
G01*
G04 APERTURE LIST*
%ADD10C,0.100000*%
G04 APERTURE END LIST*
D10*
X137024999Y-110081190D02*
X137024999Y-109581190D01*
X136691666Y-109581190D02*
X136596428Y-109581190D01*
X136548809Y-109605000D01*
X136501190Y-109652619D01*
X136477381Y-109747857D01*
X136477381Y-109914524D01*
X136501190Y-110009762D01*
X136548809Y-110057381D01*
X136596428Y-110081190D01*
X136691666Y-110081190D01*
X136739285Y-110057381D01*
X136786904Y-110009762D01*
X136810714Y-109914524D01*
X136810714Y-109747857D01*
X136786904Y-109652619D01*
X136739285Y-109605000D01*
X136691666Y-109581190D01*
X136239285Y-110081190D02*
X136144047Y-110081190D01*
X136096428Y-110057381D01*
X136072618Y-110033571D01*
X136024999Y-109962143D01*
X136001190Y-109866905D01*
X136001190Y-109676429D01*
X136024999Y-109628810D01*
X136048809Y-109605000D01*
X136096428Y-109581190D01*
X136191666Y-109581190D01*
X136239285Y-109605000D01*
X136263094Y-109628810D01*
X136286904Y-109676429D01*
X136286904Y-109795476D01*
X136263094Y-109843095D01*
X136239285Y-109866905D01*
X136191666Y-109890714D01*
X136096428Y-109890714D01*
X136048809Y-109866905D01*
X136024999Y-109843095D01*
X136001190Y-109795476D01*
X137310714Y-107541190D02*
X137310714Y-107041190D01*
X137144048Y-107398333D01*
X136977381Y-107041190D01*
X136977381Y-107541190D01*
X136739285Y-107541190D02*
X136739285Y-107041190D01*
X136525000Y-107517381D02*
X136453571Y-107541190D01*
X136334524Y-107541190D01*
X136286905Y-107517381D01*
X136263095Y-107493571D01*
X136239286Y-107445952D01*
X136239286Y-107398333D01*
X136263095Y-107350714D01*
X136286905Y-107326905D01*
X136334524Y-107303095D01*
X136429762Y-107279286D01*
X136477381Y-107255476D01*
X136501190Y-107231667D01*
X136525000Y-107184048D01*
X136525000Y-107136429D01*
X136501190Y-107088810D01*
X136477381Y-107065000D01*
X136429762Y-107041190D01*
X136310714Y-107041190D01*
X136239286Y-107065000D01*
X135929762Y-107041190D02*
X135834524Y-107041190D01*
X135786905Y-107065000D01*
X135739286Y-107112619D01*
X135715477Y-107207857D01*
X135715477Y-107374524D01*
X135739286Y-107469762D01*
X135786905Y-107517381D01*
X135834524Y-107541190D01*
X135929762Y-107541190D01*
X135977381Y-107517381D01*
X136025000Y-107469762D01*
X136048810Y-107374524D01*
X136048810Y-107207857D01*
X136025000Y-107112619D01*
X135977381Y-107065000D01*
X135929762Y-107041190D01*
X136846428Y-104953571D02*
X136870238Y-104977381D01*
X136941666Y-105001190D01*
X136989285Y-105001190D01*
X137060714Y-104977381D01*
X137108333Y-104929762D01*
X137132142Y-104882143D01*
X137155952Y-104786905D01*
X137155952Y-104715476D01*
X137132142Y-104620238D01*
X137108333Y-104572619D01*
X137060714Y-104525000D01*
X136989285Y-104501190D01*
X136941666Y-104501190D01*
X136870238Y-104525000D01*
X136846428Y-104548810D01*
X136655952Y-104977381D02*
X136584523Y-105001190D01*
X136465476Y-105001190D01*
X136417857Y-104977381D01*
X136394047Y-104953571D01*
X136370238Y-104905952D01*
X136370238Y-104858333D01*
X136394047Y-104810714D01*
X136417857Y-104786905D01*
X136465476Y-104763095D01*
X136560714Y-104739286D01*
X136608333Y-104715476D01*
X136632142Y-104691667D01*
X136655952Y-104644048D01*
X136655952Y-104596429D01*
X136632142Y-104548810D01*
X136608333Y-104525000D01*
X136560714Y-104501190D01*
X136441666Y-104501190D01*
X136370238Y-104525000D01*
X136060714Y-104501190D02*
X136013095Y-104501190D01*
X135965476Y-104525000D01*
X135941667Y-104548810D01*
X135917857Y-104596429D01*
X135894048Y-104691667D01*
X135894048Y-104810714D01*
X135917857Y-104905952D01*
X135941667Y-104953571D01*
X135965476Y-104977381D01*
X136013095Y-105001190D01*
X136060714Y-105001190D01*
X136108333Y-104977381D01*
X136132143Y-104953571D01*
X136155952Y-104905952D01*
X136179762Y-104810714D01*
X136179762Y-104691667D01*
X136155952Y-104596429D01*
X136132143Y-104548810D01*
X136108333Y-104525000D01*
X136060714Y-104501190D01*
X137191666Y-101961190D02*
X137024999Y-102461190D01*
X136858333Y-101961190D01*
X136405952Y-102413571D02*
X136429762Y-102437381D01*
X136501190Y-102461190D01*
X136548809Y-102461190D01*
X136620238Y-102437381D01*
X136667857Y-102389762D01*
X136691666Y-102342143D01*
X136715476Y-102246905D01*
X136715476Y-102175476D01*
X136691666Y-102080238D01*
X136667857Y-102032619D01*
X136620238Y-101985000D01*
X136548809Y-101961190D01*
X136501190Y-101961190D01*
X136429762Y-101985000D01*
X136405952Y-102008810D01*
X135905952Y-102413571D02*
X135929762Y-102437381D01*
X136001190Y-102461190D01*
X136048809Y-102461190D01*
X136120238Y-102437381D01*
X136167857Y-102389762D01*
X136191666Y-102342143D01*
X136215476Y-102246905D01*
X136215476Y-102175476D01*
X136191666Y-102080238D01*
X136167857Y-102032619D01*
X136120238Y-101985000D01*
X136048809Y-101961190D01*
X136001190Y-101961190D01*
X135929762Y-101985000D01*
X135905952Y-102008810D01*
X137263094Y-99921190D02*
X137263094Y-99421190D01*
X136929761Y-99421190D02*
X136834523Y-99421190D01*
X136786904Y-99445000D01*
X136739285Y-99492619D01*
X136715476Y-99587857D01*
X136715476Y-99754524D01*
X136739285Y-99849762D01*
X136786904Y-99897381D01*
X136834523Y-99921190D01*
X136929761Y-99921190D01*
X136977380Y-99897381D01*
X137024999Y-99849762D01*
X137048809Y-99754524D01*
X137048809Y-99587857D01*
X137024999Y-99492619D01*
X136977380Y-99445000D01*
X136929761Y-99421190D01*
X136239285Y-99921190D02*
X136524999Y-99921190D01*
X136382142Y-99921190D02*
X136382142Y-99421190D01*
X136429761Y-99492619D01*
X136477380Y-99540238D01*
X136524999Y-99564048D01*
X136072618Y-99421190D02*
X135763095Y-99421190D01*
X135929761Y-99611667D01*
X135858333Y-99611667D01*
X135810714Y-99635476D01*
X135786904Y-99659286D01*
X135763095Y-99706905D01*
X135763095Y-99825952D01*
X135786904Y-99873571D01*
X135810714Y-99897381D01*
X135858333Y-99921190D01*
X136001190Y-99921190D01*
X136048809Y-99897381D01*
X136072618Y-99873571D01*
X137263094Y-97381190D02*
X137263094Y-96881190D01*
X136929761Y-96881190D02*
X136834523Y-96881190D01*
X136786904Y-96905000D01*
X136739285Y-96952619D01*
X136715476Y-97047857D01*
X136715476Y-97214524D01*
X136739285Y-97309762D01*
X136786904Y-97357381D01*
X136834523Y-97381190D01*
X136929761Y-97381190D01*
X136977380Y-97357381D01*
X137024999Y-97309762D01*
X137048809Y-97214524D01*
X137048809Y-97047857D01*
X137024999Y-96952619D01*
X136977380Y-96905000D01*
X136929761Y-96881190D01*
X136239285Y-97381190D02*
X136524999Y-97381190D01*
X136382142Y-97381190D02*
X136382142Y-96881190D01*
X136429761Y-96952619D01*
X136477380Y-97000238D01*
X136524999Y-97024048D01*
X136048809Y-96928810D02*
X136024999Y-96905000D01*
X135977380Y-96881190D01*
X135858333Y-96881190D01*
X135810714Y-96905000D01*
X135786904Y-96928810D01*
X135763095Y-96976429D01*
X135763095Y-97024048D01*
X135786904Y-97095476D01*
X136072618Y-97381190D01*
X135763095Y-97381190D01*
X137263094Y-94841190D02*
X137263094Y-94341190D01*
X136929761Y-94341190D02*
X136834523Y-94341190D01*
X136786904Y-94365000D01*
X136739285Y-94412619D01*
X136715476Y-94507857D01*
X136715476Y-94674524D01*
X136739285Y-94769762D01*
X136786904Y-94817381D01*
X136834523Y-94841190D01*
X136929761Y-94841190D01*
X136977380Y-94817381D01*
X137024999Y-94769762D01*
X137048809Y-94674524D01*
X137048809Y-94507857D01*
X137024999Y-94412619D01*
X136977380Y-94365000D01*
X136929761Y-94341190D01*
X136239285Y-94841190D02*
X136524999Y-94841190D01*
X136382142Y-94841190D02*
X136382142Y-94341190D01*
X136429761Y-94412619D01*
X136477380Y-94460238D01*
X136524999Y-94484048D01*
X135810714Y-94507857D02*
X135810714Y-94841190D01*
X135929761Y-94317381D02*
X136048809Y-94674524D01*
X135739285Y-94674524D01*
X137263094Y-92301190D02*
X137263094Y-91801190D01*
X136929761Y-91801190D02*
X136834523Y-91801190D01*
X136786904Y-91825000D01*
X136739285Y-91872619D01*
X136715476Y-91967857D01*
X136715476Y-92134524D01*
X136739285Y-92229762D01*
X136786904Y-92277381D01*
X136834523Y-92301190D01*
X136929761Y-92301190D01*
X136977380Y-92277381D01*
X137024999Y-92229762D01*
X137048809Y-92134524D01*
X137048809Y-91967857D01*
X137024999Y-91872619D01*
X136977380Y-91825000D01*
X136929761Y-91801190D01*
X136239285Y-92301190D02*
X136524999Y-92301190D01*
X136382142Y-92301190D02*
X136382142Y-91801190D01*
X136429761Y-91872619D01*
X136477380Y-91920238D01*
X136524999Y-91944048D01*
X135810714Y-91801190D02*
X135905952Y-91801190D01*
X135953571Y-91825000D01*
X135977380Y-91848810D01*
X136024999Y-91920238D01*
X136048809Y-92015476D01*
X136048809Y-92205952D01*
X136024999Y-92253571D01*
X136001190Y-92277381D01*
X135953571Y-92301190D01*
X135858333Y-92301190D01*
X135810714Y-92277381D01*
X135786904Y-92253571D01*
X135763095Y-92205952D01*
X135763095Y-92086905D01*
X135786904Y-92039286D01*
X135810714Y-92015476D01*
X135858333Y-91991667D01*
X135953571Y-91991667D01*
X136001190Y-92015476D01*
X136024999Y-92039286D01*
X136048809Y-92086905D01*
X136894047Y-89499286D02*
X136727381Y-89499286D01*
X136655952Y-89761190D02*
X136894047Y-89761190D01*
X136894047Y-89261190D01*
X136655952Y-89261190D01*
X136441666Y-89761190D02*
X136441666Y-89261190D01*
X136155952Y-89761190D01*
X136155952Y-89261190D01*
X137144047Y-87078333D02*
X136905952Y-87078333D01*
X137191666Y-87221190D02*
X137024999Y-86721190D01*
X136858333Y-87221190D01*
X136691666Y-87221190D02*
X136691666Y-86721190D01*
X136572619Y-86721190D01*
X136501190Y-86745000D01*
X136453571Y-86792619D01*
X136429762Y-86840238D01*
X136405952Y-86935476D01*
X136405952Y-87006905D01*
X136429762Y-87102143D01*
X136453571Y-87149762D01*
X136501190Y-87197381D01*
X136572619Y-87221190D01*
X136691666Y-87221190D01*
X135905952Y-87173571D02*
X135929762Y-87197381D01*
X136001190Y-87221190D01*
X136048809Y-87221190D01*
X136120238Y-87197381D01*
X136167857Y-87149762D01*
X136191666Y-87102143D01*
X136215476Y-87006905D01*
X136215476Y-86935476D01*
X136191666Y-86840238D01*
X136167857Y-86792619D01*
X136120238Y-86745000D01*
X136048809Y-86721190D01*
X136001190Y-86721190D01*
X135929762Y-86745000D01*
X135905952Y-86768810D01*
X136798809Y-84681190D02*
X136965476Y-84443095D01*
X137084523Y-84681190D02*
X137084523Y-84181190D01*
X136894047Y-84181190D01*
X136846428Y-84205000D01*
X136822619Y-84228810D01*
X136798809Y-84276429D01*
X136798809Y-84347857D01*
X136822619Y-84395476D01*
X136846428Y-84419286D01*
X136894047Y-84443095D01*
X137084523Y-84443095D01*
X136608333Y-84657381D02*
X136536904Y-84681190D01*
X136417857Y-84681190D01*
X136370238Y-84657381D01*
X136346428Y-84633571D01*
X136322619Y-84585952D01*
X136322619Y-84538333D01*
X136346428Y-84490714D01*
X136370238Y-84466905D01*
X136417857Y-84443095D01*
X136513095Y-84419286D01*
X136560714Y-84395476D01*
X136584523Y-84371667D01*
X136608333Y-84324048D01*
X136608333Y-84276429D01*
X136584523Y-84228810D01*
X136560714Y-84205000D01*
X136513095Y-84181190D01*
X136394047Y-84181190D01*
X136322619Y-84205000D01*
X136179762Y-84181190D02*
X135894048Y-84181190D01*
X136036905Y-84681190D02*
X136036905Y-84181190D01*
X157690238Y-104977381D02*
X157618809Y-105001190D01*
X157499762Y-105001190D01*
X157452143Y-104977381D01*
X157428333Y-104953571D01*
X157404524Y-104905952D01*
X157404524Y-104858333D01*
X157428333Y-104810714D01*
X157452143Y-104786905D01*
X157499762Y-104763095D01*
X157595000Y-104739286D01*
X157642619Y-104715476D01*
X157666428Y-104691667D01*
X157690238Y-104644048D01*
X157690238Y-104596429D01*
X157666428Y-104548810D01*
X157642619Y-104525000D01*
X157595000Y-104501190D01*
X157475952Y-104501190D01*
X157404524Y-104525000D01*
X156904524Y-104953571D02*
X156928334Y-104977381D01*
X156999762Y-105001190D01*
X157047381Y-105001190D01*
X157118810Y-104977381D01*
X157166429Y-104929762D01*
X157190238Y-104882143D01*
X157214048Y-104786905D01*
X157214048Y-104715476D01*
X157190238Y-104620238D01*
X157166429Y-104572619D01*
X157118810Y-104525000D01*
X157047381Y-104501190D01*
X156999762Y-104501190D01*
X156928334Y-104525000D01*
X156904524Y-104548810D01*
X156452143Y-105001190D02*
X156690238Y-105001190D01*
X156690238Y-104501190D01*
X156285476Y-105001190D02*
X156285476Y-104501190D01*
X155999762Y-105001190D02*
X156214048Y-104715476D01*
X155999762Y-104501190D02*
X156285476Y-104786905D01*
X157630714Y-107541190D02*
X157630714Y-107041190D01*
X157464048Y-107398333D01*
X157297381Y-107041190D01*
X157297381Y-107541190D01*
X156964047Y-107041190D02*
X156868809Y-107041190D01*
X156821190Y-107065000D01*
X156773571Y-107112619D01*
X156749762Y-107207857D01*
X156749762Y-107374524D01*
X156773571Y-107469762D01*
X156821190Y-107517381D01*
X156868809Y-107541190D01*
X156964047Y-107541190D01*
X157011666Y-107517381D01*
X157059285Y-107469762D01*
X157083095Y-107374524D01*
X157083095Y-107207857D01*
X157059285Y-107112619D01*
X157011666Y-107065000D01*
X156964047Y-107041190D01*
X156559285Y-107517381D02*
X156487856Y-107541190D01*
X156368809Y-107541190D01*
X156321190Y-107517381D01*
X156297380Y-107493571D01*
X156273571Y-107445952D01*
X156273571Y-107398333D01*
X156297380Y-107350714D01*
X156321190Y-107326905D01*
X156368809Y-107303095D01*
X156464047Y-107279286D01*
X156511666Y-107255476D01*
X156535475Y-107231667D01*
X156559285Y-107184048D01*
X156559285Y-107136429D01*
X156535475Y-107088810D01*
X156511666Y-107065000D01*
X156464047Y-107041190D01*
X156344999Y-107041190D01*
X156273571Y-107065000D01*
X156059285Y-107541190D02*
X156059285Y-107041190D01*
X157583094Y-110081190D02*
X157583094Y-109581190D01*
X157249761Y-109581190D02*
X157154523Y-109581190D01*
X157106904Y-109605000D01*
X157059285Y-109652619D01*
X157035476Y-109747857D01*
X157035476Y-109914524D01*
X157059285Y-110009762D01*
X157106904Y-110057381D01*
X157154523Y-110081190D01*
X157249761Y-110081190D01*
X157297380Y-110057381D01*
X157344999Y-110009762D01*
X157368809Y-109914524D01*
X157368809Y-109747857D01*
X157344999Y-109652619D01*
X157297380Y-109605000D01*
X157249761Y-109581190D01*
X156559285Y-110081190D02*
X156844999Y-110081190D01*
X156702142Y-110081190D02*
X156702142Y-109581190D01*
X156749761Y-109652619D01*
X156797380Y-109700238D01*
X156844999Y-109724048D01*
X156249761Y-109581190D02*
X156202142Y-109581190D01*
X156154523Y-109605000D01*
X156130714Y-109628810D01*
X156106904Y-109676429D01*
X156083095Y-109771667D01*
X156083095Y-109890714D01*
X156106904Y-109985952D01*
X156130714Y-110033571D01*
X156154523Y-110057381D01*
X156202142Y-110081190D01*
X156249761Y-110081190D01*
X156297380Y-110057381D01*
X156321190Y-110033571D01*
X156344999Y-109985952D01*
X156368809Y-109890714D01*
X156368809Y-109771667D01*
X156344999Y-109676429D01*
X156321190Y-109628810D01*
X156297380Y-109605000D01*
X156249761Y-109581190D01*
X157225953Y-101985000D02*
X157273572Y-101961190D01*
X157345000Y-101961190D01*
X157416429Y-101985000D01*
X157464048Y-102032619D01*
X157487857Y-102080238D01*
X157511667Y-102175476D01*
X157511667Y-102246905D01*
X157487857Y-102342143D01*
X157464048Y-102389762D01*
X157416429Y-102437381D01*
X157345000Y-102461190D01*
X157297381Y-102461190D01*
X157225953Y-102437381D01*
X157202143Y-102413571D01*
X157202143Y-102246905D01*
X157297381Y-102246905D01*
X156987857Y-102461190D02*
X156987857Y-101961190D01*
X156702143Y-102461190D01*
X156702143Y-101961190D01*
X156464047Y-102461190D02*
X156464047Y-101961190D01*
X156345000Y-101961190D01*
X156273571Y-101985000D01*
X156225952Y-102032619D01*
X156202143Y-102080238D01*
X156178333Y-102175476D01*
X156178333Y-102246905D01*
X156202143Y-102342143D01*
X156225952Y-102389762D01*
X156273571Y-102437381D01*
X156345000Y-102461190D01*
X156464047Y-102461190D01*
X157583094Y-99921190D02*
X157583094Y-99421190D01*
X157249761Y-99421190D02*
X157154523Y-99421190D01*
X157106904Y-99445000D01*
X157059285Y-99492619D01*
X157035476Y-99587857D01*
X157035476Y-99754524D01*
X157059285Y-99849762D01*
X157106904Y-99897381D01*
X157154523Y-99921190D01*
X157249761Y-99921190D01*
X157297380Y-99897381D01*
X157344999Y-99849762D01*
X157368809Y-99754524D01*
X157368809Y-99587857D01*
X157344999Y-99492619D01*
X157297380Y-99445000D01*
X157249761Y-99421190D01*
X156559285Y-99921190D02*
X156844999Y-99921190D01*
X156702142Y-99921190D02*
X156702142Y-99421190D01*
X156749761Y-99492619D01*
X156797380Y-99540238D01*
X156844999Y-99564048D01*
X156106904Y-99421190D02*
X156344999Y-99421190D01*
X156368809Y-99659286D01*
X156344999Y-99635476D01*
X156297380Y-99611667D01*
X156178333Y-99611667D01*
X156130714Y-99635476D01*
X156106904Y-99659286D01*
X156083095Y-99706905D01*
X156083095Y-99825952D01*
X156106904Y-99873571D01*
X156130714Y-99897381D01*
X156178333Y-99921190D01*
X156297380Y-99921190D01*
X156344999Y-99897381D01*
X156368809Y-99873571D01*
X157344999Y-97381190D02*
X157344999Y-96881190D01*
X157011666Y-96881190D02*
X156916428Y-96881190D01*
X156868809Y-96905000D01*
X156821190Y-96952619D01*
X156797381Y-97047857D01*
X156797381Y-97214524D01*
X156821190Y-97309762D01*
X156868809Y-97357381D01*
X156916428Y-97381190D01*
X157011666Y-97381190D01*
X157059285Y-97357381D01*
X157106904Y-97309762D01*
X157130714Y-97214524D01*
X157130714Y-97047857D01*
X157106904Y-96952619D01*
X157059285Y-96905000D01*
X157011666Y-96881190D01*
X156606904Y-96928810D02*
X156583094Y-96905000D01*
X156535475Y-96881190D01*
X156416428Y-96881190D01*
X156368809Y-96905000D01*
X156344999Y-96928810D01*
X156321190Y-96976429D01*
X156321190Y-97024048D01*
X156344999Y-97095476D01*
X156630713Y-97381190D01*
X156321190Y-97381190D01*
X157344999Y-94841190D02*
X157344999Y-94341190D01*
X157011666Y-94341190D02*
X156916428Y-94341190D01*
X156868809Y-94365000D01*
X156821190Y-94412619D01*
X156797381Y-94507857D01*
X156797381Y-94674524D01*
X156821190Y-94769762D01*
X156868809Y-94817381D01*
X156916428Y-94841190D01*
X157011666Y-94841190D01*
X157059285Y-94817381D01*
X157106904Y-94769762D01*
X157130714Y-94674524D01*
X157130714Y-94507857D01*
X157106904Y-94412619D01*
X157059285Y-94365000D01*
X157011666Y-94341190D01*
X156487856Y-94341190D02*
X156440237Y-94341190D01*
X156392618Y-94365000D01*
X156368809Y-94388810D01*
X156344999Y-94436429D01*
X156321190Y-94531667D01*
X156321190Y-94650714D01*
X156344999Y-94745952D01*
X156368809Y-94793571D01*
X156392618Y-94817381D01*
X156440237Y-94841190D01*
X156487856Y-94841190D01*
X156535475Y-94817381D01*
X156559285Y-94793571D01*
X156583094Y-94745952D01*
X156606904Y-94650714D01*
X156606904Y-94531667D01*
X156583094Y-94436429D01*
X156559285Y-94388810D01*
X156535475Y-94365000D01*
X156487856Y-94341190D01*
X157344999Y-92301190D02*
X157344999Y-91801190D01*
X157011666Y-91801190D02*
X156916428Y-91801190D01*
X156868809Y-91825000D01*
X156821190Y-91872619D01*
X156797381Y-91967857D01*
X156797381Y-92134524D01*
X156821190Y-92229762D01*
X156868809Y-92277381D01*
X156916428Y-92301190D01*
X157011666Y-92301190D01*
X157059285Y-92277381D01*
X157106904Y-92229762D01*
X157130714Y-92134524D01*
X157130714Y-91967857D01*
X157106904Y-91872619D01*
X157059285Y-91825000D01*
X157011666Y-91801190D01*
X156368809Y-91967857D02*
X156368809Y-92301190D01*
X156487856Y-91777381D02*
X156606904Y-92134524D01*
X156297380Y-92134524D01*
X157344999Y-89761190D02*
X157344999Y-89261190D01*
X157011666Y-89261190D02*
X156916428Y-89261190D01*
X156868809Y-89285000D01*
X156821190Y-89332619D01*
X156797381Y-89427857D01*
X156797381Y-89594524D01*
X156821190Y-89689762D01*
X156868809Y-89737381D01*
X156916428Y-89761190D01*
X157011666Y-89761190D01*
X157059285Y-89737381D01*
X157106904Y-89689762D01*
X157130714Y-89594524D01*
X157130714Y-89427857D01*
X157106904Y-89332619D01*
X157059285Y-89285000D01*
X157011666Y-89261190D01*
X156344999Y-89261190D02*
X156583094Y-89261190D01*
X156606904Y-89499286D01*
X156583094Y-89475476D01*
X156535475Y-89451667D01*
X156416428Y-89451667D01*
X156368809Y-89475476D01*
X156344999Y-89499286D01*
X156321190Y-89546905D01*
X156321190Y-89665952D01*
X156344999Y-89713571D01*
X156368809Y-89737381D01*
X156416428Y-89761190D01*
X156535475Y-89761190D01*
X156583094Y-89737381D01*
X156606904Y-89713571D01*
X157178333Y-87221190D02*
X157345000Y-86983095D01*
X157464047Y-87221190D02*
X157464047Y-86721190D01*
X157273571Y-86721190D01*
X157225952Y-86745000D01*
X157202143Y-86768810D01*
X157178333Y-86816429D01*
X157178333Y-86887857D01*
X157202143Y-86935476D01*
X157225952Y-86959286D01*
X157273571Y-86983095D01*
X157464047Y-86983095D01*
X157011666Y-86721190D02*
X156678333Y-87221190D01*
X156678333Y-86721190D02*
X157011666Y-87221190D01*
X156487857Y-87221190D02*
X156487857Y-86721190D01*
X156368810Y-86721190D01*
X156297381Y-86745000D01*
X156249762Y-86792619D01*
X156225953Y-86840238D01*
X156202143Y-86935476D01*
X156202143Y-87006905D01*
X156225953Y-87102143D01*
X156249762Y-87149762D01*
X156297381Y-87197381D01*
X156368810Y-87221190D01*
X156487857Y-87221190D01*
X157475952Y-84181190D02*
X157190238Y-84181190D01*
X157333095Y-84681190D02*
X157333095Y-84181190D01*
X157071190Y-84181190D02*
X156737857Y-84681190D01*
X156737857Y-84181190D02*
X157071190Y-84681190D01*
X156547381Y-84681190D02*
X156547381Y-84181190D01*
X156428334Y-84181190D01*
X156356905Y-84205000D01*
X156309286Y-84252619D01*
X156285477Y-84300238D01*
X156261667Y-84395476D01*
X156261667Y-84466905D01*
X156285477Y-84562143D01*
X156309286Y-84609762D01*
X156356905Y-84657381D01*
X156428334Y-84681190D01*
X156547381Y-84681190D01*
M02*
