M48
METRIC,TZ
T1C0.650
T2C1.000
%
G90
G05
T1
X139700Y-89535
X139700Y-91535
X139700Y-93535
X139700Y-95535
X139700Y-97535
X139700Y-99535
X139700Y-101535
X139700Y-103535
X141690Y-104535
X143690Y-104535
X145690Y-104535
X147690Y-104535
X149690Y-104535
X151690Y-104535
X153700Y-89535
X153700Y-91535
X153700Y-93535
X153700Y-95535
X153700Y-97535
X153700Y-99535
X153700Y-101535
X153700Y-103535
T2
X133985Y-84455
X133985Y-86995
X133985Y-89535
X133985Y-92075
X133985Y-94615
X133985Y-97155
X133985Y-99695
X133985Y-102235
X133985Y-104775
X133985Y-107315
X133985Y-109855
X159385Y-84455
X159385Y-86995
X159385Y-89535
X159385Y-92075
X159385Y-94615
X159385Y-97155
X159385Y-99695
X159385Y-102235
X159385Y-104775
X159385Y-107315
X159385Y-109855
T0
M30
