G04 #@! TF.FileFunction,Legend,Top*
%FSLAX46Y46*%
G04 Gerber Fmt 4.6, Leading zero omitted, Abs format (unit mm)*
G04 Created by KiCad (PCBNEW 4.0.7) date 11/18/18 14:35:23*
%MOMM*%
%LPD*%
G01*
G04 APERTURE LIST*
%ADD10C,0.100000*%
%ADD11C,0.120000*%
%ADD12C,0.152400*%
%ADD13C,0.150000*%
G04 APERTURE END LIST*
D10*
X143244525Y-109394286D02*
X143411191Y-109394286D01*
X143482620Y-109656190D02*
X143244525Y-109656190D01*
X143244525Y-109156190D01*
X143482620Y-109156190D01*
X143673096Y-109632381D02*
X143744525Y-109656190D01*
X143863572Y-109656190D01*
X143911191Y-109632381D01*
X143935001Y-109608571D01*
X143958810Y-109560952D01*
X143958810Y-109513333D01*
X143935001Y-109465714D01*
X143911191Y-109441905D01*
X143863572Y-109418095D01*
X143768334Y-109394286D01*
X143720715Y-109370476D01*
X143696906Y-109346667D01*
X143673096Y-109299048D01*
X143673096Y-109251429D01*
X143696906Y-109203810D01*
X143720715Y-109180000D01*
X143768334Y-109156190D01*
X143887382Y-109156190D01*
X143958810Y-109180000D01*
X144173096Y-109656190D02*
X144173096Y-109156190D01*
X144363572Y-109156190D01*
X144411191Y-109180000D01*
X144435000Y-109203810D01*
X144458810Y-109251429D01*
X144458810Y-109322857D01*
X144435000Y-109370476D01*
X144411191Y-109394286D01*
X144363572Y-109418095D01*
X144173096Y-109418095D01*
X144673096Y-109465714D02*
X145054048Y-109465714D01*
X145554048Y-109656190D02*
X145268334Y-109656190D01*
X145411191Y-109656190D02*
X145411191Y-109156190D01*
X145363572Y-109227619D01*
X145315953Y-109275238D01*
X145268334Y-109299048D01*
X145744524Y-109203810D02*
X145768334Y-109180000D01*
X145815953Y-109156190D01*
X145935000Y-109156190D01*
X145982619Y-109180000D01*
X146006429Y-109203810D01*
X146030238Y-109251429D01*
X146030238Y-109299048D01*
X146006429Y-109370476D01*
X145720715Y-109656190D01*
X146030238Y-109656190D01*
X146244524Y-109394286D02*
X146411190Y-109394286D01*
X146482619Y-109656190D02*
X146244524Y-109656190D01*
X146244524Y-109156190D01*
X146482619Y-109156190D01*
X147244523Y-109394286D02*
X147315952Y-109418095D01*
X147339761Y-109441905D01*
X147363571Y-109489524D01*
X147363571Y-109560952D01*
X147339761Y-109608571D01*
X147315952Y-109632381D01*
X147268333Y-109656190D01*
X147077857Y-109656190D01*
X147077857Y-109156190D01*
X147244523Y-109156190D01*
X147292142Y-109180000D01*
X147315952Y-109203810D01*
X147339761Y-109251429D01*
X147339761Y-109299048D01*
X147315952Y-109346667D01*
X147292142Y-109370476D01*
X147244523Y-109394286D01*
X147077857Y-109394286D01*
X147577857Y-109656190D02*
X147577857Y-109322857D01*
X147577857Y-109418095D02*
X147601666Y-109370476D01*
X147625476Y-109346667D01*
X147673095Y-109322857D01*
X147720714Y-109322857D01*
X148077857Y-109632381D02*
X148030238Y-109656190D01*
X147935000Y-109656190D01*
X147887381Y-109632381D01*
X147863571Y-109584762D01*
X147863571Y-109394286D01*
X147887381Y-109346667D01*
X147935000Y-109322857D01*
X148030238Y-109322857D01*
X148077857Y-109346667D01*
X148101666Y-109394286D01*
X148101666Y-109441905D01*
X147863571Y-109489524D01*
X148530237Y-109656190D02*
X148530237Y-109394286D01*
X148506428Y-109346667D01*
X148458809Y-109322857D01*
X148363571Y-109322857D01*
X148315952Y-109346667D01*
X148530237Y-109632381D02*
X148482618Y-109656190D01*
X148363571Y-109656190D01*
X148315952Y-109632381D01*
X148292142Y-109584762D01*
X148292142Y-109537143D01*
X148315952Y-109489524D01*
X148363571Y-109465714D01*
X148482618Y-109465714D01*
X148530237Y-109441905D01*
X148768333Y-109656190D02*
X148768333Y-109156190D01*
X148815952Y-109465714D02*
X148958809Y-109656190D01*
X148958809Y-109322857D02*
X148768333Y-109513333D01*
X149244523Y-109656190D02*
X149196904Y-109632381D01*
X149173095Y-109608571D01*
X149149285Y-109560952D01*
X149149285Y-109418095D01*
X149173095Y-109370476D01*
X149196904Y-109346667D01*
X149244523Y-109322857D01*
X149315952Y-109322857D01*
X149363571Y-109346667D01*
X149387380Y-109370476D01*
X149411190Y-109418095D01*
X149411190Y-109560952D01*
X149387380Y-109608571D01*
X149363571Y-109632381D01*
X149315952Y-109656190D01*
X149244523Y-109656190D01*
X149839761Y-109322857D02*
X149839761Y-109656190D01*
X149625476Y-109322857D02*
X149625476Y-109584762D01*
X149649285Y-109632381D01*
X149696904Y-109656190D01*
X149768333Y-109656190D01*
X149815952Y-109632381D01*
X149839761Y-109608571D01*
X150006428Y-109322857D02*
X150196904Y-109322857D01*
X150077857Y-109156190D02*
X150077857Y-109584762D01*
X150101666Y-109632381D01*
X150149285Y-109656190D01*
X150196904Y-109656190D01*
X141720715Y-110506190D02*
X141720715Y-110006190D01*
X141720715Y-110482381D02*
X141673096Y-110506190D01*
X141577858Y-110506190D01*
X141530239Y-110482381D01*
X141506430Y-110458571D01*
X141482620Y-110410952D01*
X141482620Y-110268095D01*
X141506430Y-110220476D01*
X141530239Y-110196667D01*
X141577858Y-110172857D01*
X141673096Y-110172857D01*
X141720715Y-110196667D01*
X142149287Y-110482381D02*
X142101668Y-110506190D01*
X142006430Y-110506190D01*
X141958811Y-110482381D01*
X141935001Y-110434762D01*
X141935001Y-110244286D01*
X141958811Y-110196667D01*
X142006430Y-110172857D01*
X142101668Y-110172857D01*
X142149287Y-110196667D01*
X142173096Y-110244286D01*
X142173096Y-110291905D01*
X141935001Y-110339524D01*
X142363572Y-110482381D02*
X142411191Y-110506190D01*
X142506429Y-110506190D01*
X142554048Y-110482381D01*
X142577858Y-110434762D01*
X142577858Y-110410952D01*
X142554048Y-110363333D01*
X142506429Y-110339524D01*
X142435001Y-110339524D01*
X142387382Y-110315714D01*
X142363572Y-110268095D01*
X142363572Y-110244286D01*
X142387382Y-110196667D01*
X142435001Y-110172857D01*
X142506429Y-110172857D01*
X142554048Y-110196667D01*
X142792144Y-110506190D02*
X142792144Y-110172857D01*
X142792144Y-110006190D02*
X142768334Y-110030000D01*
X142792144Y-110053810D01*
X142815953Y-110030000D01*
X142792144Y-110006190D01*
X142792144Y-110053810D01*
X143244524Y-110172857D02*
X143244524Y-110577619D01*
X143220715Y-110625238D01*
X143196905Y-110649048D01*
X143149286Y-110672857D01*
X143077858Y-110672857D01*
X143030239Y-110649048D01*
X143244524Y-110482381D02*
X143196905Y-110506190D01*
X143101667Y-110506190D01*
X143054048Y-110482381D01*
X143030239Y-110458571D01*
X143006429Y-110410952D01*
X143006429Y-110268095D01*
X143030239Y-110220476D01*
X143054048Y-110196667D01*
X143101667Y-110172857D01*
X143196905Y-110172857D01*
X143244524Y-110196667D01*
X143482620Y-110172857D02*
X143482620Y-110506190D01*
X143482620Y-110220476D02*
X143506429Y-110196667D01*
X143554048Y-110172857D01*
X143625477Y-110172857D01*
X143673096Y-110196667D01*
X143696905Y-110244286D01*
X143696905Y-110506190D01*
X144125477Y-110482381D02*
X144077858Y-110506190D01*
X143982620Y-110506190D01*
X143935001Y-110482381D01*
X143911191Y-110434762D01*
X143911191Y-110244286D01*
X143935001Y-110196667D01*
X143982620Y-110172857D01*
X144077858Y-110172857D01*
X144125477Y-110196667D01*
X144149286Y-110244286D01*
X144149286Y-110291905D01*
X143911191Y-110339524D01*
X144577857Y-110506190D02*
X144577857Y-110006190D01*
X144577857Y-110482381D02*
X144530238Y-110506190D01*
X144435000Y-110506190D01*
X144387381Y-110482381D01*
X144363572Y-110458571D01*
X144339762Y-110410952D01*
X144339762Y-110268095D01*
X144363572Y-110220476D01*
X144387381Y-110196667D01*
X144435000Y-110172857D01*
X144530238Y-110172857D01*
X144577857Y-110196667D01*
X145196905Y-110506190D02*
X145196905Y-110006190D01*
X145196905Y-110196667D02*
X145244524Y-110172857D01*
X145339762Y-110172857D01*
X145387381Y-110196667D01*
X145411190Y-110220476D01*
X145435000Y-110268095D01*
X145435000Y-110410952D01*
X145411190Y-110458571D01*
X145387381Y-110482381D01*
X145339762Y-110506190D01*
X145244524Y-110506190D01*
X145196905Y-110482381D01*
X145601667Y-110172857D02*
X145720714Y-110506190D01*
X145839762Y-110172857D02*
X145720714Y-110506190D01*
X145673095Y-110625238D01*
X145649286Y-110649048D01*
X145601667Y-110672857D01*
X146411190Y-110506190D02*
X146411190Y-110172857D01*
X146411190Y-110220476D02*
X146434999Y-110196667D01*
X146482618Y-110172857D01*
X146554047Y-110172857D01*
X146601666Y-110196667D01*
X146625475Y-110244286D01*
X146625475Y-110506190D01*
X146625475Y-110244286D02*
X146649285Y-110196667D01*
X146696904Y-110172857D01*
X146768332Y-110172857D01*
X146815952Y-110196667D01*
X146839761Y-110244286D01*
X146839761Y-110506190D01*
X147077857Y-110458571D02*
X147101666Y-110482381D01*
X147077857Y-110506190D01*
X147054047Y-110482381D01*
X147077857Y-110458571D01*
X147077857Y-110506190D01*
X147696904Y-110506190D02*
X147696904Y-110006190D01*
X147696904Y-110196667D02*
X147744523Y-110172857D01*
X147839761Y-110172857D01*
X147887380Y-110196667D01*
X147911189Y-110220476D01*
X147934999Y-110268095D01*
X147934999Y-110410952D01*
X147911189Y-110458571D01*
X147887380Y-110482381D01*
X147839761Y-110506190D01*
X147744523Y-110506190D01*
X147696904Y-110482381D01*
X148363570Y-110506190D02*
X148363570Y-110244286D01*
X148339761Y-110196667D01*
X148292142Y-110172857D01*
X148196904Y-110172857D01*
X148149285Y-110196667D01*
X148363570Y-110482381D02*
X148315951Y-110506190D01*
X148196904Y-110506190D01*
X148149285Y-110482381D01*
X148125475Y-110434762D01*
X148125475Y-110387143D01*
X148149285Y-110339524D01*
X148196904Y-110315714D01*
X148315951Y-110315714D01*
X148363570Y-110291905D01*
X148815951Y-110172857D02*
X148815951Y-110506190D01*
X148601666Y-110172857D02*
X148601666Y-110434762D01*
X148625475Y-110482381D01*
X148673094Y-110506190D01*
X148744523Y-110506190D01*
X148792142Y-110482381D01*
X148815951Y-110458571D01*
X149054047Y-110506190D02*
X149054047Y-110172857D01*
X149054047Y-110220476D02*
X149077856Y-110196667D01*
X149125475Y-110172857D01*
X149196904Y-110172857D01*
X149244523Y-110196667D01*
X149268332Y-110244286D01*
X149268332Y-110506190D01*
X149268332Y-110244286D02*
X149292142Y-110196667D01*
X149339761Y-110172857D01*
X149411189Y-110172857D01*
X149458809Y-110196667D01*
X149482618Y-110244286D01*
X149482618Y-110506190D01*
X149934999Y-110172857D02*
X149934999Y-110577619D01*
X149911190Y-110625238D01*
X149887380Y-110649048D01*
X149839761Y-110672857D01*
X149768333Y-110672857D01*
X149720714Y-110649048D01*
X149934999Y-110482381D02*
X149887380Y-110506190D01*
X149792142Y-110506190D01*
X149744523Y-110482381D01*
X149720714Y-110458571D01*
X149696904Y-110410952D01*
X149696904Y-110268095D01*
X149720714Y-110220476D01*
X149744523Y-110196667D01*
X149792142Y-110172857D01*
X149887380Y-110172857D01*
X149934999Y-110196667D01*
X150387380Y-110506190D02*
X150387380Y-110244286D01*
X150363571Y-110196667D01*
X150315952Y-110172857D01*
X150220714Y-110172857D01*
X150173095Y-110196667D01*
X150387380Y-110482381D02*
X150339761Y-110506190D01*
X150220714Y-110506190D01*
X150173095Y-110482381D01*
X150149285Y-110434762D01*
X150149285Y-110387143D01*
X150173095Y-110339524D01*
X150220714Y-110315714D01*
X150339761Y-110315714D01*
X150387380Y-110291905D01*
X150625476Y-110506190D02*
X150625476Y-110172857D01*
X150625476Y-110268095D02*
X150649285Y-110220476D01*
X150673095Y-110196667D01*
X150720714Y-110172857D01*
X150768333Y-110172857D01*
X150863571Y-110172857D02*
X151054047Y-110172857D01*
X150935000Y-110006190D02*
X150935000Y-110434762D01*
X150958809Y-110482381D01*
X151006428Y-110506190D01*
X151054047Y-110506190D01*
X151411190Y-110482381D02*
X151363571Y-110506190D01*
X151268333Y-110506190D01*
X151220714Y-110482381D01*
X151196904Y-110434762D01*
X151196904Y-110244286D01*
X151220714Y-110196667D01*
X151268333Y-110172857D01*
X151363571Y-110172857D01*
X151411190Y-110196667D01*
X151434999Y-110244286D01*
X151434999Y-110291905D01*
X151196904Y-110339524D01*
X151649285Y-110172857D02*
X151649285Y-110506190D01*
X151649285Y-110220476D02*
X151673094Y-110196667D01*
X151720713Y-110172857D01*
X151792142Y-110172857D01*
X151839761Y-110196667D01*
X151863570Y-110244286D01*
X151863570Y-110506190D01*
D11*
X135315000Y-83125000D02*
X132655000Y-83125000D01*
X135315000Y-108585000D02*
X135315000Y-83125000D01*
X132655000Y-108585000D02*
X132655000Y-83125000D01*
X135315000Y-108585000D02*
X132655000Y-108585000D01*
X135315000Y-109855000D02*
X135315000Y-111185000D01*
X135315000Y-111185000D02*
X133985000Y-111185000D01*
X158055000Y-111185000D02*
X160715000Y-111185000D01*
X158055000Y-85725000D02*
X158055000Y-111185000D01*
X160715000Y-85725000D02*
X160715000Y-111185000D01*
X158055000Y-85725000D02*
X160715000Y-85725000D01*
X158055000Y-84455000D02*
X158055000Y-83125000D01*
X158055000Y-83125000D02*
X159385000Y-83125000D01*
D12*
X138684000Y-104394000D02*
X138684000Y-105156000D01*
X138684000Y-105156000D02*
X154686000Y-105156000D01*
X154686000Y-105156000D02*
X154686000Y-104394000D01*
D13*
X133651667Y-81367381D02*
X133651667Y-82081667D01*
X133604047Y-82224524D01*
X133508809Y-82319762D01*
X133365952Y-82367381D01*
X133270714Y-82367381D01*
X134651667Y-82367381D02*
X134080238Y-82367381D01*
X134365952Y-82367381D02*
X134365952Y-81367381D01*
X134270714Y-81510238D01*
X134175476Y-81605476D01*
X134080238Y-81653095D01*
X159051667Y-81577381D02*
X159051667Y-82291667D01*
X159004047Y-82434524D01*
X158908809Y-82529762D01*
X158765952Y-82577381D01*
X158670714Y-82577381D01*
X159480238Y-81672619D02*
X159527857Y-81625000D01*
X159623095Y-81577381D01*
X159861191Y-81577381D01*
X159956429Y-81625000D01*
X160004048Y-81672619D01*
X160051667Y-81767857D01*
X160051667Y-81863095D01*
X160004048Y-82005952D01*
X159432619Y-82577381D01*
X160051667Y-82577381D01*
X145288095Y-91527381D02*
X145288095Y-92336905D01*
X145335714Y-92432143D01*
X145383333Y-92479762D01*
X145478571Y-92527381D01*
X145669048Y-92527381D01*
X145764286Y-92479762D01*
X145811905Y-92432143D01*
X145859524Y-92336905D01*
X145859524Y-91527381D01*
X146859524Y-92527381D02*
X146288095Y-92527381D01*
X146573809Y-92527381D02*
X146573809Y-91527381D01*
X146478571Y-91670238D01*
X146383333Y-91765476D01*
X146288095Y-91813095D01*
M02*
